<svg width="220" height="200" viewBox="0 0 220 200" fill="none" xmlns="http://www.w3.org/2000/svg">
  <!-- Left paddle (wide angle) -->
  <g transform="translate(82, 68) rotate(-35)">
    <rect x="-22" y="-44" width="44" height="52" rx="18" fill="#333333"/>
    <circle cx="-8" cy="-32" r="2.3" fill="#F5F8F6"/>
    <circle cx="6" cy="-32" r="2.3" fill="#F5F8F6"/>
    <circle cx="-12" cy="-20" r="2.3" fill="#F5F8F6"/>
    <circle cx="0" cy="-20" r="2.3" fill="#F5F8F6"/>
    <circle cx="12" cy="-20" r="2.3" fill="#F5F8F6"/>
    <circle cx="-8" cy="-8" r="2.3" fill="#F5F8F6"/>
    <circle cx="6" cy="-8" r="2.3" fill="#F5F8F6"/>
    <rect x="-5" y="8" width="10" height="28" rx="3.5" fill="#333333"/>
    <rect x="-6" y="30" width="12" height="7" rx="2" fill="#2EAF7B"/>
  </g>
  
  <!-- Right paddle (wide angle) -->
  <g transform="translate(138, 68) rotate(35)">
    <rect x="-22" y="-44" width="44" height="52" rx="18" fill="#333333"/>
    <circle cx="-8" cy="-32" r="2.3" fill="#F5F8F6"/>
    <circle cx="6" cy="-32" r="2.3" fill="#F5F8F6"/>
    <circle cx="-12" cy="-20" r="2.3" fill="#F5F8F6"/>
    <circle cx="0" cy="-20" r="2.3" fill="#F5F8F6"/>
    <circle cx="12" cy="-20" r="2.3" fill="#F5F8F6"/>
    <circle cx="-8" cy="-8" r="2.3" fill="#F5F8F6"/>
    <circle cx="6" cy="-8" r="2.3" fill="#F5F8F6"/>
    <rect x="-5" y="8" width="10" height="28" rx="3.5" fill="#333333"/>
    <rect x="-6" y="30" width="12" height="7" rx="2" fill="#2EAF7B"/>
  </g>
  
  <!-- Water waves -->
  <path d="M22 102 Q48 92 74 102 Q96 110 110 102 Q124 94 146 102 Q168 110 198 102" stroke="#93E9BE" stroke-width="4.5" stroke-linecap="round" fill="none"/>
  <path d="M18 116 Q46 107 74 116 Q96 124 114 116 Q132 108 156 116 Q174 122 202 116" stroke="#2EAF7B" stroke-width="3.5" stroke-linecap="round" fill="none" opacity="0.7"/>
  <path d="M28 129 Q52 122 76 129 Q94 134 110 129 Q128 122 150 129 Q164 134 186 129" stroke="#93E9BE" stroke-width="2.5" stroke-linecap="round" fill="none" opacity="0.4"/>
  
  <!-- Text -->
  <text x="110" y="166" text-anchor="middle" font-family="'Plus Jakarta Sans', sans-serif" font-weight="800" font-size="22" fill="#333333" letter-spacing="-0.5">POOL &amp; PADDLE</text>
  <text x="110" y="186" text-anchor="middle" font-family="'Plus Jakarta Sans', sans-serif" font-weight="600" font-size="10.5" fill="#2EAF7B" letter-spacing="4">BEACH SIDE</text>
</svg>
